<?xml version="1.0" standalone="no"?>
<!DOCTYPE svg PUBLIC "-//W3C//DTD SVG 20010904//EN"
 "http://www.w3.org/TR/2001/REC-SVG-20010904/DTD/svg10.dtd">
<svg version="1.0" xmlns="http://www.w3.org/2000/svg"
 width="700.000000pt" height="700.000000pt" viewBox="0 0 700.000000 700.000000"
 preserveAspectRatio="xMidYMid meet">
<metadata>
Created by potrace 1.11, written by Peter Selinger 2001-2013
</metadata>
<g transform="translate(0.000000,700.000000) scale(0.100000,-0.100000)"
fill="#000000" stroke="none">
<path d="M2759 6996 c-2 -2 -40 -6 -84 -10 -471 -39 -986 -196 -1375 -419
-565 -325 -954 -803 -1150 -1415 -35 -107 -70 -244 -85 -327 -15 -79 -35 -209
-40 -255 -3 -30 -8 -73 -12 -95 -4 -22 -8 -1038 -10 -2258 l-4 -2217 2163 1
c1190 1 2204 5 2253 10 171 16 216 20 238 25 12 2 42 7 67 10 25 3 61 9 80 14
19 5 51 12 70 15 183 30 520 151 702 252 43 24 80 43 83 43 6 0 244 160 270
181 292 242 484 468 657 774 118 209 250 548 307 785 27 115 42 180 47 210 2
14 9 48 14 75 12 65 18 106 26 180 3 33 9 71 12 85 3 14 8 996 9 2183 l4 2157
-2119 0 c-1166 0 -2121 -2 -2123 -4z m3556 -2436 c0 -965 -3 -1789 -8 -1830
-9 -97 -16 -150 -22 -176 -2 -12 -7 -39 -10 -60 -4 -21 -9 -48 -12 -59 -3 -11
-7 -29 -9 -40 -9 -83 -100 -361 -166 -513 -172 -396 -392 -669 -700 -869 -252
-164 -494 -248 -878 -307 -114 -18 -386 -21 -2020 -21 l-1805 0 0 1815 c0 998
4 1849 8 1890 11 113 24 208 33 253 2 12 7 36 9 52 14 79 71 270 106 360 191
477 513 800 1024 1027 266 119 562 196 855 224 41 3 76 8 78 9 2 2 794 2 1760
1 l1757 -1 0 -1755z"/>
<path d="M2778 5735 c-2 -2 -34 -5 -73 -8 -62 -6 -102 -11 -211 -31 -115 -21
-363 -109 -477 -169 -185 -98 -399 -300 -507 -479 -53 -89 -143 -284 -174
-378 -62 -192 -70 -259 -71 -605 l0 -270 1255 0 c690 0 1257 -3 1260 -7 4 -5
5 -374 1 -533 l-1 -40 -1258 1 -1259 1 0 -978 1 -979 20 -1 c124 -4 2940 0
2996 5 265 24 586 128 770 250 264 175 414 364 570 719 25 58 85 265 94 322 3
22 8 51 11 65 3 14 8 61 11 105 7 82 12 2939 6 2986 l-4 27 -1479 -1 c-813 0
-1480 -1 -1481 -2z m2260 -692 c4 -6 7 -519 6 -1140 -1 -1262 2 -1200 -74
-1414 -50 -144 -88 -205 -185 -304 -117 -119 -213 -177 -358 -219 -106 -31 8
-29 -1362 -27 l-1120 1 0 295 c0 189 4 295 10 296 6 1 577 2 1269 3 l1260 1 0
963 c1 530 -1 967 -4 971 -3 5 -560 8 -1238 8 -677 0 -1235 2 -1238 5 -8 8 49
129 90 190 104 158 244 258 456 326 107 35 136 41 235 49 39 3 71 6 72 7 1 0
490 1 1088 1 804 0 1088 -3 1093 -12z"/>
</g>
</svg>
