<svg xmlns="http://www.w3.org/2000/svg" xmlns:xlink="http://www.w3.org/1999/xlink" width="25" height="25" viewBox="0 0 25 25"><defs><clipPath id="clip-path"><rect width="25" height="25" fill="none"/></clipPath></defs><g id="Symbol_4_1" clip-path="url(#clip-path)" data-name="Symbol 4 – 1"><path id="Union_1" fill="#4e4e4e" d="M6.9,25A6.907,6.907,0,0,1,0,18.1V6.9A6.907,6.907,0,0,1,6.9,0H18.1A6.907,6.907,0,0,1,25,6.9V18.1A6.907,6.907,0,0,1,18.1,25ZM2.218,6.9V18.1A4.686,4.686,0,0,0,6.9,22.782H18.1A4.686,4.686,0,0,0,22.782,18.1V6.9A4.686,4.686,0,0,0,18.1,2.218H6.9A4.686,4.686,0,0,0,2.218,6.9Zm3.84,5.6A6.442,6.442,0,1,1,12.5,18.942,6.449,6.449,0,0,1,6.058,12.5Zm2.218,0A4.224,4.224,0,1,0,12.5,8.276,4.228,4.228,0,0,0,8.276,12.5Zm9.786-5.546a1.626,1.626,0,1,1,1.149.476A1.639,1.639,0,0,1,18.063,6.955Z" data-name="Union 1"/></g></svg>