<?xml version="1.0" encoding="utf-8"?>
<!-- Generator: Adobe Illustrator 24.0.1, SVG Export Plug-In . SVG Version: 6.00 Build 0)  -->
<svg version="1.1" id="Layer_1" xmlns="http://www.w3.org/2000/svg" xmlns:xlink="http://www.w3.org/1999/xlink" x="0px" y="0px"
	 viewBox="0 0 25 25" style="enable-background:new 0 0 25 25;" xml:space="preserve">
<style type="text/css">
	.st0{clip-path:url(#SVGID_2_);}
	.st1{fill:#FFFFFF;}
</style>
<g>
	<defs>
		<rect id="SVGID_1_" width="25" height="25"/>
	</defs>
	<clipPath id="SVGID_2_">
		<use xlink:href="#SVGID_1_"  style="overflow:visible;"/>
	</clipPath>
	<g id="Symbol_4_14" class="st0">
		<path id="Union_1" class="st1" d="M6.9,25C3.1,25,0,21.9,0,18.1V6.9C0,3.1,3.1,0,6.9,0h11.2C21.9,0,25,3.1,25,6.9v11.2
			c0,3.8-3.1,6.9-6.9,6.9H6.9z M2.2,6.9v11.2c0,2.6,2.1,4.7,4.7,4.7h11.2c2.6,0,4.7-2.1,4.7-4.7V6.9c0-2.6-2.1-4.7-4.7-4.7H6.9
			C4.3,2.2,2.2,4.3,2.2,6.9z M6.1,12.5c0-3.6,2.9-6.4,6.4-6.4s6.4,2.9,6.4,6.4s-2.9,6.4-6.4,6.4l0,0C8.9,18.9,6.1,16.1,6.1,12.5z
			 M8.3,12.5c0,2.3,1.9,4.2,4.2,4.2s4.2-1.9,4.2-4.2s-1.9-4.2-4.2-4.2C10.2,8.3,8.3,10.2,8.3,12.5z M18.1,7c-0.6-0.6-0.6-1.7,0-2.3
			c0.6-0.6,1.7-0.6,2.3,0s0.6,1.7,0,2.3c-0.3,0.3-0.7,0.5-1.2,0.5C18.8,7.4,18.4,7.3,18.1,7L18.1,7z"/>
	</g>
</g>
</svg>
