<?xml version="1.0" encoding="utf-8"?>
<!-- Generator: Adobe Illustrator 24.0.1, SVG Export Plug-In . SVG Version: 6.00 Build 0)  -->
<svg version="1.1" id="Layer_1" xmlns="http://www.w3.org/2000/svg" xmlns:xlink="http://www.w3.org/1999/xlink" x="0px" y="0px"
	 viewBox="0 0 40 40" style="enable-background:new 0 0 40 40;" xml:space="preserve">
<style type="text/css">
	.st0{clip-path:url(#SVGID_2_);}
	.st1{fill:#FEE4B7;}
</style>
<g>
	<g>
		<defs>
			<rect id="SVGID_1_" width="40" height="40"/>
		</defs>
		<clipPath id="SVGID_2_">
			<use xlink:href="#SVGID_1_"  style="overflow:visible;"/>
		</clipPath>
		<g id="Symbol_6_5" class="st0">
			<g id="Group_6" transform="translate(-140 -30)">
				<g id="Group_1" transform="translate(140 30)">
					<path id="Path_1" class="st1" d="M23.6,40H0V16.4C0,7.9,4.5,3.9,8.3,2c2.5-1.2,5.3-1.9,8.1-2H40v23.6c-0.1,2.8-0.8,5.6-2,8.1
						C36.1,35.5,32.1,40,23.6,40z M3.9,36.1h19.7c5.1,0,8.8-2,10.8-6c1-2,1.6-4.2,1.7-6.5V3.9H16.4C14.1,4,11.9,4.6,9.9,5.6
						c-4,2-6,5.7-6,10.8C3.9,16.4,3.9,36.1,3.9,36.1z"/>
				</g>
				<g id="Group_2" transform="translate(147.218 37.217)">
					<path id="Path_2" class="st1" d="M16.4,25.6H0V14.4h14.4v-3.3H0v-2c-0.1-1.9,0.5-3.7,1.5-5.3C2.3,2.6,3.4,1.6,4.7,1
						c1.4-0.6,2.9-1,4.5-1h16.4v16.4c0,1.6-0.4,3.1-1.1,4.5c-0.6,1.3-1.6,2.4-2.8,3.2C20.1,25.1,18.2,25.6,16.4,25.6z M3.9,21.7
						h12.5c1.9,0.2,3.6-0.8,4.5-2.4c0.4-0.9,0.7-1.9,0.7-2.8V3.9H9.2c-1,0-2,0.3-2.8,0.7C5.4,5.1,4.6,6,4.2,7.2h14.2v11.1H3.9V21.7z
						"/>
				</g>
			</g>
		</g>
	</g>
</g>
</svg>
