<svg xmlns="http://www.w3.org/2000/svg" xmlns:xlink="http://www.w3.org/1999/xlink" width="25" height="25" viewBox="0 0 25 25">
  <defs>
    <clipPath id="clip-path">
      <rect width="25" height="25" fill="none"/>
    </clipPath>
  </defs>
  <g id="Symbol_5_1" data-name="Symbol 5 – 1" clip-path="url(#clip-path)">
    <path id="Union_2" data-name="Union 2" d="M6.9,25A6.907,6.907,0,0,1,0,18.1V6.9A6.907,6.907,0,0,1,6.9,0H18.1A6.907,6.907,0,0,1,25,6.9V18.1A6.907,6.907,0,0,1,18.1,25ZM3.868,17.871H8.7a7.423,7.423,0,0,0,1.517-.146,2.933,2.933,0,0,0,1.212-.538,3,3,0,0,0,.76-.844,3.135,3.135,0,0,0,.476-1.714,2.835,2.835,0,0,0-.418-1.573,2.394,2.394,0,0,0-1.238-.949,2.536,2.536,0,0,0,.818-.611,2.394,2.394,0,0,0,.5-1.582,2.728,2.728,0,0,0-.492-1.64A3.3,3.3,0,0,0,9.055,7.13H3.868ZM14.559,10.7A4.167,4.167,0,0,0,13.5,13.772a3.74,3.74,0,0,0,1.173,3.081,4.2,4.2,0,0,0,2.71.946,3.735,3.735,0,0,0,2.894-1.122,2.5,2.5,0,0,0,.745-1.391H18.97a1.566,1.566,0,0,1-1.53.881,2.031,2.031,0,0,1-1.109-.288,1.838,1.838,0,0,1-.8-1.624h5.6a9.854,9.854,0,0,0-.067-1.528,3.785,3.785,0,0,0-.614-1.592A3.1,3.1,0,0,0,19.121,10a4.374,4.374,0,0,0-1.808-.361A3.713,3.713,0,0,0,14.559,10.7Zm.574-2.055h4.325V7.575H15.133ZM6.345,16.005V13.142H8.65a2.711,2.711,0,0,1,1.075.182,1.152,1.152,0,0,1,.683,1.15A1.358,1.358,0,0,1,9.7,15.817a2.523,2.523,0,0,1-1.088.188Zm9.23-3.077a2.067,2.067,0,0,1,.537-1.19,1.6,1.6,0,0,1,1.2-.442,1.751,1.751,0,0,1,1.192.417,1.68,1.68,0,0,1,.537,1.215Zm-9.23-1.564V8.995h2a4.061,4.061,0,0,1,1.269.168.961.961,0,0,1,.577.991,1.012,1.012,0,0,1-.436.943,2.152,2.152,0,0,1-1.136.266Z" fill="#4e4e4e"/>
  </g>
</svg>
