<svg xmlns="http://www.w3.org/2000/svg" xmlns:xlink="http://www.w3.org/1999/xlink" width="25" height="25" viewBox="0 0 25 25">
  <defs>
    <clipPath id="clip-path">
      <rect width="25" height="25" fill="none"/>
    </clipPath>
  </defs>
  <g id="Symbol_2_1" data-name="Symbol 2 – 1" clip-path="url(#clip-path)">
    <path id="Path_3" data-name="Path 3" d="M-241.168-187.063a12.5,12.5,0,0,0-12.5,12.5,12.5,12.5,0,0,0,12.5,12.5,12.512,12.512,0,0,0,12.5-12.5A12.512,12.512,0,0,0-241.168-187.063Zm8.257,5.762a10.629,10.629,0,0,1,2.413,6.643,25.2,25.2,0,0,0-7.429-.339c-.082-.176-.149-.366-.231-.556-.217-.515-.461-1.044-.705-1.546A14.29,14.29,0,0,0-232.911-181.3Zm-8.257-3.918a10.653,10.653,0,0,1,7.077,2.684,12.1,12.1,0,0,1-5.6,3.85,57.661,57.661,0,0,0-3.986-6.25A10.863,10.863,0,0,1-241.168-185.219Zm-4.542,1a67.4,67.4,0,0,1,3.959,6.169,40.033,40.033,0,0,1-9.87,1.3A10.726,10.726,0,0,1-245.71-184.216Zm-6.141,9.666v-.325a39.016,39.016,0,0,0,10.968-1.518c.312.6.6,1.207.867,1.817-.135.041-.285.081-.42.122a16.973,16.973,0,0,0-8.677,7.036A10.651,10.651,0,0,1-251.851-174.55Zm10.683,10.67a10.6,10.6,0,0,1-6.548-2.251c.19-.393,2.359-4.569,8.379-6.67.027-.013.041-.013.068-.027a44.135,44.135,0,0,1,2.278,8.094A10.5,10.5,0,0,1-241.168-163.88Zm5.952-1.83a45.955,45.955,0,0,0-2.074-7.606,15.592,15.592,0,0,1,6.643.461A10.584,10.584,0,0,1-235.216-165.71Z" transform="translate(253.668 187.063)" fill="#4e4e4e"/>
  </g>
</svg>
