<svg xmlns="http://www.w3.org/2000/svg" xmlns:xlink="http://www.w3.org/1999/xlink" width="40" height="40" viewBox="0 0 40 40"><defs><clipPath id="clip-path"><rect width="40" height="40" fill="none"/></clipPath></defs><g id="Symbol_7_1" clip-path="url(#clip-path)" data-name="Symbol 7 – 1"><g id="Group_1" data-name="Group 1"><path id="Path_1" fill="#fff" d="M-18.955,139.165h-23.61V115.557c0-8.456,4.514-12.488,8.3-14.381a19.975,19.975,0,0,1,8.093-2.012H-2.565v23.61a19.941,19.941,0,0,1-2.01,8.091C-6.469,134.653-10.5,139.165-18.955,139.165Zm-19.7-3.912h19.7c5.135,0,8.777-2.028,10.823-6.025a16.165,16.165,0,0,0,1.655-6.459V103.079h-19.7a16.178,16.178,0,0,0-6.453,1.653c-4,2.046-6.025,5.688-6.025,10.825Z" data-name="Path 1" transform="translate(42.565 -99.165)"/></g><g id="Group_2" data-name="Group 2" transform="translate(7.218 7.218)"><path id="Path_2" fill="#fff" d="M-22.6,128.307H-38.988v-11.13h14.435v-3.305H-38.988v-1.955a9.3,9.3,0,0,1,1.457-5.258,8.26,8.26,0,0,1,3.234-2.807,10.867,10.867,0,0,1,4.483-1.11h16.39v16.392a10.848,10.848,0,0,1-1.108,4.483,8.26,8.26,0,0,1-2.807,3.234A9.323,9.323,0,0,1-22.6,128.307Zm-12.478-3.912H-22.6a4.621,4.621,0,0,0,4.516-2.429,7.107,7.107,0,0,0,.745-2.841V106.656h-12.47a7.063,7.063,0,0,0-2.839.745,4.209,4.209,0,0,0-2.161,2.559h14.165v11.13H-35.074Z" data-name="Path 2" transform="translate(38.988 -102.742)"/></g></g></svg>